<svg width="20" height="16" viewBox="0 0 20 16" fill="none" xmlns="http://www.w3.org/2000/svg">
<path d="M19.4444 8.33331H16.4415C15.7458 8.33331 15.3979 8.33331 15.1361 8.52207C14.8742 8.71083 14.7642 9.04084 14.5442 9.70086L14.3447 10.2991C14.1247 10.9591 14.0147 11.2891 13.7528 11.4779C13.491 11.6666 13.1431 11.6666 12.4474 11.6666H7.55263C6.85691 11.6666 6.50905 11.6666 6.24716 11.4779C5.98527 11.2891 5.87527 10.9591 5.65526 10.2991L5.45585 9.70086C5.23584 9.04084 5.12584 8.71083 4.86395 8.52207C4.60207 8.33331 4.2542 8.33331 3.55848 8.33331H0.555557" stroke="#F2F2F2"/>
<path d="M7.22222 4.99999L10 7.77777M10 7.77777L12.7778 4.99999M10 7.77777L10 -6.19667e-06" stroke="#F2F2F2"/>
<path d="M3.88889 3.88892L1.83802 5.25616C1.36914 5.56875 1.1347 5.72505 0.964975 5.93154C0.814723 6.11435 0.701991 6.32499 0.633229 6.55142C0.555557 6.80718 0.555557 7.08894 0.555557 7.65247V12.12C0.555557 13.1281 0.555557 13.6322 0.751746 14.0172C0.924318 14.3559 1.19968 14.6313 1.53837 14.8038C1.92342 15 2.42746 15 3.43555 15H16.5644C17.5725 15 18.0766 15 18.4616 14.8038C18.8003 14.6313 19.0757 14.3559 19.2483 14.0172C19.4444 13.6322 19.4444 13.1281 19.4444 12.12V7.65247C19.4444 7.08894 19.4444 6.80718 19.3668 6.55142C19.298 6.32499 19.1853 6.11435 19.035 5.93154C18.8653 5.72505 18.6309 5.56875 18.162 5.25616L16.1111 3.88892" stroke="#F2F2F2" stroke-linecap="round"/>
</svg>
