<svg width="22" height="20" viewBox="0 0 22 20" fill="none" xmlns="http://www.w3.org/2000/svg">
<path d="M21 10L21.3904 10.3123L21.6403 10L21.3904 9.68765L21 10ZM12 9.5C11.7239 9.5 11.5 9.72386 11.5 10C11.5 10.2761 11.7239 10.5 12 10.5L12 9.5ZM17.3904 15.3123L21.3904 10.3123L20.6096 9.68765L16.6096 14.6877L17.3904 15.3123ZM21.3904 9.68765L17.3904 4.68765L16.6096 5.31235L20.6096 10.3123L21.3904 9.68765ZM21 9.5L12 9.5L12 10.5L21 10.5L21 9.5Z" fill="#222222"/>
<path d="M13 13.8681L13 14.6115C13 16.2298 13 17.039 12.526 17.5985C12.0521 18.158 11.2539 18.291 9.6576 18.5571L7.98639 18.8356C4.7433 19.3761 3.12175 19.6464 2.06088 18.7477C1 17.849 1 16.2051 1 12.9172L1 7.08276C1 3.79493 1 2.15102 2.06088 1.25232C3.12175 0.353624 4.7433 0.623882 7.9864 1.1644L9.6576 1.44293C11.2539 1.70899 12.0521 1.84201 12.526 2.4015C13 2.961 13 3.77017 13 5.38851L13 5.93403" stroke="#222222"/>
</svg>
