<svg width="20" height="20" viewBox="0 0 20 20" fill="none" xmlns="http://www.w3.org/2000/svg">
<path d="M1.4994 18.5006L1.14657 18.8534C0.937164 18.644 0.933636 18.3829 0.948772 18.2282C0.962521 18.0877 1.00443 17.9203 1.04367 17.7636C1.04591 17.7547 1.04814 17.7458 1.05036 17.7369L2.04722 13.7495C2.051 13.7344 2.05473 13.7194 2.05844 13.7045C2.11387 13.4817 2.16295 13.2846 2.26431 13.1055C2.36568 12.9265 2.5095 12.783 2.67197 12.6209C2.68284 12.61 2.69378 12.5991 2.70481 12.5881L12.8989 2.394L12.9222 2.37072C13.2356 2.05728 13.5056 1.78722 13.7509 1.60004C14.0138 1.39944 14.3063 1.24755 14.6666 1.24755C15.027 1.24755 15.3195 1.39944 15.5824 1.60004C15.8277 1.78722 16.0977 2.05728 16.4111 2.37072L16.4344 2.394L17.606 3.56557M1.4994 18.5006L17.606 3.56557M1.4994 18.5006L1.14658 18.8534C1.35599 19.0628 1.61704 19.0663 1.77177 19.0512C1.91232 19.0375 2.07968 18.9955 2.23639 18.9563C2.24531 18.9541 2.25419 18.9518 2.26303 18.9496L6.25049 17.9528C6.26561 17.949 6.28062 17.9452 6.29552 17.9415C6.51825 17.8861 6.71542 17.837 6.89444 17.7357C7.07348 17.6343 7.217 17.4905 7.37913 17.328C7.38997 17.3171 7.40089 17.3062 7.41191 17.2952L17.606 7.1011L17.6293 7.07781C17.9427 6.76441 18.2128 6.49439 18.3999 6.24906C18.6005 5.98614 18.7524 5.69372 18.7524 5.33334C18.7524 4.97295 18.6005 4.68053 18.3999 4.41761C18.2128 4.17228 17.9427 3.90224 17.6293 3.58884L17.6164 3.57596M1.4994 18.5006L17.6164 3.57596M17.606 3.56557L17.6164 3.57596M17.606 3.56557L17.6164 3.57596M17.2525 3.91907L17.2525 3.91903L17.2525 3.91907Z" stroke="#222222"/>
<path d="M11.3333 3.33333L15.3333 0.666664L19.3333 4.66666L16.6666 8.66666L11.3333 3.33333Z" fill="#222222"/>
</svg>
