<svg width="40" height="40" viewBox="0 0 40 40" fill="none" xmlns="http://www.w3.org/2000/svg">
<path d="M22.6702 9.2018L23.1677 9.15205L23.1677 9.15205L22.6702 9.2018ZM22.3238 7.81529L21.9594 8.15765L21.9594 8.15765L22.3238 7.81529ZM23.3408 11.6249L23.096 12.0609L23.096 12.0609L23.3408 11.6249ZM23.5598 11.7156L23.4246 12.197L23.4246 12.197L23.5598 11.7156ZM25.7473 10.4764L25.432 10.0884L25.4307 10.0894L25.7473 10.4764ZM25.7473 10.4764L26.0626 10.8645L26.064 10.8634L25.7473 10.4764ZM26.9726 9.74092L26.957 9.24116L26.957 9.24116L26.9726 9.74092ZM27.1343 9.74899L27.1996 9.25326L27.1996 9.25326L27.1343 9.74899ZM28.2804 10.6027L28.6339 10.2492L28.6339 10.2492L28.2804 10.6027ZM29.3972 11.7196L29.0436 12.0731L29.0436 12.0731L29.3972 11.7196ZM30.251 12.8656L30.7467 12.8004L30.7467 12.8004L30.251 12.8656ZM30.259 13.0273L29.7593 13.0117L29.7593 13.0117L30.259 13.0273ZM29.5235 14.2526L29.9105 14.5692L29.9105 14.5692L29.5235 14.2526ZM28.2843 16.4402L28.7657 16.305L28.7657 16.305L28.2843 16.4402ZM28.375 16.6592L28.8111 16.4145L28.8111 16.4145L28.375 16.6592ZM30.7982 17.3298L30.7484 17.8273L30.7484 17.8273L30.7982 17.3298ZM32.1847 17.6762L31.8424 18.0406L31.8424 18.0406L32.1847 17.6762ZM32.2933 17.7962L31.8967 18.1006L31.8967 18.1006L32.2933 17.7962ZM32.2934 22.2037L31.8967 21.8994L31.8967 21.8994L32.2934 22.2037ZM32.1846 22.3239L32.5269 22.6884L32.5269 22.6883L32.1846 22.3239ZM30.7983 22.6702L30.848 23.1677L30.848 23.1677L30.7983 22.6702ZM28.3756 23.3405L28.8116 23.5854L28.8116 23.5854L28.3756 23.3405ZM28.2847 23.56L27.8033 23.4249L27.8033 23.4249L28.2847 23.56ZM29.5237 25.747L29.9107 25.4304L29.9107 25.4304L29.5237 25.747ZM30.2591 26.972L30.7588 26.9563L30.7588 26.9563L30.2591 26.972ZM30.251 27.134L30.7467 27.1993L30.7467 27.1993L30.251 27.134ZM27.1344 30.2505L27.1996 30.7462L27.1996 30.7462L27.1344 30.2505ZM26.9727 30.2585L26.9883 29.7588L26.9883 29.7588L26.9727 30.2585ZM25.7474 29.523L25.4308 29.91L25.4308 29.91L25.7474 29.523ZM23.5599 28.2839L23.4246 27.8025L23.4246 27.8025L23.5599 28.2839ZM23.3408 28.3746L23.5856 28.8106L23.5856 28.8106L23.3408 28.3746ZM22.6702 30.7979L23.1677 30.8476L23.1677 30.8476L22.6702 30.7979ZM22.3237 32.1848L21.9594 31.8424L21.9594 31.8424L22.3237 32.1848ZM22.2039 32.2932L21.8995 31.8966L21.8995 31.8966L22.2039 32.2932ZM17.7962 32.2933L18.1006 31.8967L18.1006 31.8967L17.7962 32.2933ZM17.6762 32.1847L18.0406 31.8424L18.0406 31.8424L17.6762 32.1847ZM17.3298 30.7982L17.8273 30.7484L17.3298 30.7982ZM16.6592 28.3751L16.9039 27.939L16.9039 27.939L16.6592 28.3751ZM16.4402 28.2844L16.5755 27.803L16.5755 27.803L16.4402 28.2844ZM14.2526 29.5236L14.5692 29.9105L14.5692 29.9105L14.2526 29.5236ZM13.0272 30.2591L13.0116 29.7593L13.0116 29.7593L13.0272 30.2591ZM12.8656 30.251L12.8004 30.7468L12.8004 30.7468L12.8656 30.251ZM11.7195 29.3972L12.0731 29.0437L12.0731 29.0437L11.7195 29.3972ZM10.6027 28.2804L10.9563 27.9269L10.9563 27.9269L10.6027 28.2804ZM9.74893 27.1344L9.2532 27.1996L9.2532 27.1996L9.74893 27.1344ZM9.74086 26.9727L10.2406 26.9883L10.2406 26.9883L9.74086 26.9727ZM10.4764 25.7474L10.0894 25.4307L10.0894 25.4307L10.4764 25.7474ZM11.7156 23.5598L11.2342 23.695L11.2342 23.695L11.7156 23.5598ZM11.6249 23.3408L12.0609 23.096L12.0609 23.096L11.6249 23.3408ZM9.20181 22.6702L9.25156 22.1727L9.22675 22.1702H9.20181V22.6702ZM9.20179 22.6702L9.15204 23.1677L9.17685 23.1702H9.20179V22.6702ZM7.8153 22.3238L7.47294 22.6882L7.47294 22.6882L7.8153 22.3238ZM7.70667 22.2038L8.10333 21.8994L8.10333 21.8994L7.70667 22.2038ZM7.5 20.7897L8 20.7897L8 20.7897L7.5 20.7897ZM7.5 19.2104L7 19.2104V19.2104L7.5 19.2104ZM7.70674 17.7961L7.31011 17.4917L7.31011 17.4917L7.70674 17.7961ZM7.8152 17.6763L8.1576 18.0406L8.1576 18.0406L7.8152 17.6763ZM9.20194 17.3298L9.15219 16.8323L9.15219 16.8323L9.20194 17.3298ZM11.6254 16.659L11.1894 16.4143L11.1894 16.4143L11.6254 16.659ZM11.716 16.4403L11.2347 16.305L11.2347 16.305L11.716 16.4403ZM10.4766 14.2523L10.0896 14.5689L10.0896 14.5689L10.4766 14.2523ZM9.74091 13.0266L10.2407 13.0111L10.2407 13.0111L9.74091 13.0266ZM9.74896 12.8652L9.25322 12.8001L9.25322 12.8001L9.74896 12.8652ZM10.6029 11.7189L10.9565 12.0724L10.9565 12.0724L10.6029 11.7189ZM11.7196 10.6022L11.366 10.2487L11.366 10.2487L11.7196 10.6022ZM12.8657 9.74842L12.8004 9.25269L12.8004 9.25269L12.8657 9.74842ZM13.0273 9.74035L13.0117 10.2401L13.0117 10.2401L13.0273 9.74035ZM14.2527 10.476L14.5694 10.089L14.5694 10.089L14.2527 10.476ZM16.4401 11.7151L16.5752 12.1965L16.5752 12.1965L16.4401 11.7151ZM16.6594 11.6243L16.9043 12.0602L16.9043 12.0602L16.6594 11.6243ZM17.3298 9.20163L17.8274 9.25138L17.8274 9.25138L17.3298 9.20163ZM17.6761 7.81539L18.0405 8.15769L18.0405 8.15769L17.6761 7.81539ZM17.7963 7.70659L18.1006 8.10329L18.1006 8.10329L17.7963 7.70659ZM22.2038 7.70667L21.8994 8.10333L21.8994 8.10333L22.2038 7.70667ZM23.1677 9.15205C23.1309 8.78409 23.0998 8.46565 23.0443 8.21024C22.9862 7.94359 22.8907 7.68846 22.6882 7.47294L21.9594 8.15765C21.9894 8.18954 22.0291 8.24796 22.0671 8.42286C22.1076 8.60901 22.1335 8.86011 22.1727 9.25155L23.1677 9.15205ZM23.5855 11.1889C23.5471 11.1673 23.46 11.1003 23.3761 10.745C23.2928 10.3919 23.2415 9.88975 23.1677 9.15205L22.1727 9.25155C22.2434 9.95941 22.3006 10.5415 22.4029 10.9748C22.5047 11.406 22.6806 11.8277 23.096 12.0609L23.5855 11.1889ZM23.695 11.2342C23.6569 11.2235 23.6201 11.2083 23.5855 11.1889L23.096 12.0609C23.1998 12.1191 23.31 12.1648 23.4246 12.197L23.695 11.2342ZM25.4307 10.0894C24.8569 10.5589 24.4656 10.8777 24.157 11.0684C23.8464 11.2603 23.7374 11.2461 23.695 11.2342L23.4246 12.197C23.8832 12.3258 24.3057 12.152 24.6826 11.9191C25.0614 11.685 25.5134 11.3139 26.0639 10.8634L25.4307 10.0894ZM25.432 10.0884L25.432 10.0884L26.0626 10.8645L26.0626 10.8645L25.432 10.0884ZM26.957 9.24116C26.6615 9.25039 26.4135 9.36325 26.1839 9.51077C25.9641 9.65207 25.7169 9.85527 25.4307 10.0894L26.064 10.8634C26.3684 10.6143 26.5643 10.455 26.7245 10.3521C26.8751 10.2553 26.9445 10.242 26.9882 10.2407L26.957 9.24116ZM27.1996 9.25326C27.1192 9.24268 27.0381 9.23864 26.957 9.24116L26.9882 10.2407C27.0152 10.2398 27.0423 10.2412 27.0691 10.2447L27.1996 9.25326ZM28.6339 10.2492C28.3724 9.98772 28.1467 9.76093 27.942 9.59846C27.7282 9.42882 27.4928 9.29185 27.1996 9.25326L27.0691 10.2447C27.1125 10.2504 27.1802 10.2705 27.3204 10.3818C27.4696 10.5002 27.6486 10.6781 27.9268 10.9563L28.6339 10.2492ZM29.7507 11.366L28.6339 10.2492L27.9268 10.9563L29.0436 12.0731L29.7507 11.366ZM30.7467 12.8004C30.7081 12.5072 30.5711 12.2717 30.4015 12.058C30.239 11.8532 30.0122 11.6275 29.7507 11.366L29.0436 12.0731C29.3218 12.3513 29.4998 12.5303 29.6182 12.6796C29.7294 12.8198 29.7495 12.8875 29.7552 12.9309L30.7467 12.8004ZM30.7588 13.0429C30.7613 12.9619 30.7573 12.8808 30.7467 12.8004L29.7552 12.9309C29.7588 12.9577 29.7601 12.9847 29.7593 13.0117L30.7588 13.0429ZM29.9105 14.5692C30.1447 14.283 30.3479 14.0359 30.4892 13.816C30.6367 13.5864 30.7496 13.3385 30.7588 13.0429L29.7593 13.0117C29.7579 13.0555 29.7447 13.1248 29.6479 13.2754C29.5449 13.4357 29.3857 13.6315 29.1366 13.936L29.9105 14.5692ZM28.7657 16.305C28.7538 16.2626 28.7396 16.1536 28.9315 15.843C29.1222 15.5344 29.441 15.1431 29.9105 14.5692L29.1366 13.936C28.6861 14.4866 28.3149 14.9386 28.0808 15.3174C27.8479 15.6943 27.6741 16.1169 27.803 16.5755L28.7657 16.305ZM28.8111 16.4145C28.7917 16.3799 28.7764 16.3431 28.7657 16.305L27.803 16.5755C27.8352 16.69 27.8808 16.8002 27.939 16.9039L28.8111 16.4145ZM30.8479 16.8323C30.1102 16.7585 29.6081 16.7072 29.2549 16.6238C28.8996 16.5399 28.8326 16.4528 28.8111 16.4145L27.939 16.9039C28.1722 17.3193 28.5939 17.4953 29.0251 17.5971C29.4585 17.6994 30.0405 17.7565 30.7484 17.8273L30.8479 16.8323ZM32.5271 17.3118C32.3116 17.1093 32.0564 17.0138 31.7898 16.9557C31.5343 16.9002 31.2159 16.8691 30.8479 16.8323L30.7484 17.8273C31.1399 17.8665 31.391 17.8924 31.5771 17.9329C31.752 17.9709 31.8105 18.0106 31.8424 18.0406L32.5271 17.3118ZM32.69 17.4918C32.6406 17.4275 32.5862 17.3673 32.5271 17.3118L31.8424 18.0406C31.8621 18.0591 31.8802 18.0791 31.8967 18.1006L32.69 17.4918ZM33 19.2103C33 18.8405 33.0008 18.5205 32.9709 18.2609C32.9397 17.9898 32.87 17.7264 32.69 17.4918L31.8967 18.1006C31.9233 18.1353 31.957 18.1974 31.9774 18.3752C31.9992 18.5645 32 18.8169 32 19.2103H33ZM33 20.7899V19.2103H32V20.7899H33ZM32.6901 22.5081C32.8701 22.2735 32.9397 22.0102 32.9709 21.7391C33.0008 21.4795 33 21.1596 33 20.7899H32C32 21.1832 31.9992 21.4356 31.9775 21.6248C31.957 21.8026 31.9233 21.8647 31.8967 21.8994L32.6901 22.5081ZM32.5269 22.6883C32.5861 22.6328 32.6407 22.5725 32.6901 22.5081L31.8967 21.8994C31.8802 21.9208 31.862 21.9409 31.8423 21.9595L32.5269 22.6883ZM30.848 23.1677C31.2159 23.1309 31.5344 23.0998 31.7897 23.0443C32.0563 22.9863 32.3114 22.8908 32.5269 22.6884L31.8423 21.9595C31.8104 21.9894 31.752 22.0291 31.5771 22.0671C31.391 22.1076 31.1399 22.1335 30.7485 22.1727L30.848 23.1677ZM28.8116 23.5854C28.8331 23.547 28.9002 23.46 29.2554 23.3761C29.6085 23.2927 30.1105 23.2414 30.848 23.1677L30.7485 22.1727C30.0408 22.2434 29.4589 22.3005 29.0256 22.4028C28.5946 22.5046 28.1729 22.6805 27.9397 23.0957L28.8116 23.5854ZM28.7661 23.6951C28.7769 23.6569 28.7921 23.62 28.8116 23.5854L27.9397 23.0957C27.8813 23.1996 27.8356 23.3101 27.8033 23.4249L28.7661 23.6951ZM29.9107 25.4304C29.4414 24.8567 29.1227 24.4655 28.932 24.1569C28.7401 23.8464 28.7543 23.7375 28.7661 23.6951L27.8033 23.4249C27.6747 23.8834 27.8484 24.3058 28.0813 24.6826C28.3153 25.0613 28.6864 25.5132 29.1367 26.0636L29.9107 25.4304ZM30.7588 26.9563C30.7496 26.6608 30.6367 26.4129 30.4892 26.1834C30.348 25.9636 30.1448 25.7165 29.9107 25.4304L29.1367 26.0636C29.3858 26.368 29.545 26.5638 29.648 26.724C29.7447 26.8746 29.758 26.9439 29.7593 26.9876L30.7588 26.9563ZM30.7467 27.1993C30.7573 27.1188 30.7614 27.0375 30.7588 26.9563L29.7593 26.9876C29.7602 27.0147 29.7588 27.0418 29.7553 27.0687L30.7467 27.1993ZM29.751 28.6333C30.0124 28.3719 30.2391 28.1462 30.4015 27.9415C30.5711 27.7278 30.7081 27.4924 30.7467 27.1993L29.7553 27.0687C29.7496 27.112 29.7295 27.1797 29.6182 27.3199C29.4998 27.4691 29.3219 27.6481 29.0439 27.9262L29.751 28.6333ZM28.634 29.7502L29.751 28.6333L29.0439 27.9262L27.9269 29.0431L28.634 29.7502ZM27.1996 30.7462C27.4928 30.7076 27.7283 30.5706 27.9421 30.401C28.1468 30.2385 28.3725 30.0117 28.634 29.7502L27.9269 29.0431C27.6487 29.3213 27.4697 29.4993 27.3204 29.6177C27.1802 29.7289 27.1125 29.749 27.0691 29.7547L27.1996 30.7462ZM26.9571 30.7583C27.0381 30.7608 27.1193 30.7568 27.1996 30.7462L27.0691 29.7547C27.0423 29.7583 27.0153 29.7596 26.9883 29.7588L26.9571 30.7583ZM25.4308 29.91C25.717 30.1442 25.9641 30.3474 26.184 30.4887C26.4136 30.6362 26.6615 30.7491 26.9571 30.7583L26.9883 29.7588C26.9445 29.7574 26.8752 29.7441 26.7246 29.6474C26.5643 29.5444 26.3685 29.3852 26.064 29.1361L25.4308 29.91ZM23.6951 28.7652C23.7375 28.7533 23.8465 28.7391 24.157 28.931C24.4657 29.1218 24.857 29.4405 25.4308 29.91L26.064 29.1361C25.5134 28.6856 25.0615 28.3144 24.6827 28.0803C24.3058 27.8474 23.8832 27.6736 23.4246 27.8025L23.6951 28.7652ZM23.5856 28.8106C23.6202 28.7912 23.6569 28.7759 23.6951 28.7652L23.4246 27.8025C23.3101 27.8347 23.1998 27.8803 23.0961 27.9386L23.5856 28.8106ZM23.1677 30.8476C23.2415 30.1099 23.2928 29.6077 23.3762 29.2545C23.4601 28.8992 23.5472 28.8321 23.5856 28.8106L23.0961 27.9386C22.6807 28.1718 22.5048 28.5935 22.403 29.0247C22.3006 29.4581 22.2435 30.0402 22.1727 30.7481L23.1677 30.8476ZM22.6881 32.5272C22.8906 32.3117 22.9862 32.0565 23.0442 31.7897C23.0998 31.5343 23.1309 31.2157 23.1677 30.8476L22.1727 30.7481C22.1335 31.1397 22.1076 31.3909 22.0671 31.5771C22.029 31.7521 21.9893 31.8105 21.9594 31.8424L22.6881 32.5272ZM22.5084 32.6899C22.5726 32.6406 22.6327 32.5862 22.6881 32.5272L21.9594 31.8424C21.9409 31.8621 21.9209 31.8802 21.8995 31.8966L22.5084 32.6899ZM20.7895 33C21.1594 33 21.4794 33.0008 21.7392 32.9709C22.0103 32.9397 22.2737 32.87 22.5084 32.6899L21.8995 31.8966C21.8647 31.9233 21.8027 31.957 21.6248 31.9774C21.4355 31.9992 21.183 32 20.7895 32V33ZM19.2103 33H20.7895V32H19.2103V33ZM17.4918 32.69C17.7264 32.87 17.9898 32.9397 18.2609 32.9709C18.5205 33.0008 18.8405 33 19.2103 33V32C18.8169 32 18.5645 31.9992 18.3752 31.9774C18.1974 31.957 18.1353 31.9233 18.1006 31.8967L17.4918 32.69ZM17.3118 32.5271C17.3673 32.5862 17.4275 32.6406 17.4918 32.69L18.1006 31.8967C18.0791 31.8802 18.0591 31.8621 18.0406 31.8424L17.3118 32.5271ZM16.8323 30.8479C16.8691 31.2159 16.9002 31.5344 16.9557 31.7898C17.0138 32.0564 17.1093 32.3116 17.3118 32.5271L18.0406 31.8424C18.0106 31.8105 17.9709 31.752 17.9329 31.5771C17.8924 31.391 17.8665 31.1399 17.8273 30.7484L16.8323 30.8479ZM16.4145 28.8111C16.4528 28.8326 16.5399 28.8996 16.6238 29.2549C16.7072 29.6081 16.7585 30.1102 16.8323 30.8479L17.8273 30.7484C17.7565 30.0405 17.6994 29.4585 17.5971 29.0251C17.4953 28.5939 17.3193 28.1722 16.9039 27.939L16.4145 28.8111ZM16.305 28.7657C16.3431 28.7764 16.3799 28.7917 16.4145 28.8111L16.9039 27.939C16.8002 27.8808 16.69 27.8352 16.5755 27.803L16.305 28.7657ZM14.5692 29.9105C15.143 29.4411 15.5344 29.1223 15.843 28.9315C16.1536 28.7396 16.2626 28.7538 16.305 28.7657L16.5755 27.803C16.1169 27.6741 15.6943 27.8479 15.3174 28.0808C14.9386 28.3149 14.4866 28.6861 13.936 29.1366L14.5692 29.9105ZM13.0428 30.7588C13.3384 30.7496 13.5864 30.6368 13.8159 30.4892C14.0358 30.3479 14.283 30.1447 14.5692 29.9105L13.936 29.1366C13.6315 29.3857 13.4356 29.545 13.2754 29.648C13.1248 29.7447 13.0554 29.758 13.0116 29.7593L13.0428 30.7588ZM12.8004 30.7468C12.8807 30.7573 12.9618 30.7614 13.0428 30.7588L13.0116 29.7593C12.9847 29.7602 12.9576 29.7588 12.9308 29.7553L12.8004 30.7468ZM11.366 29.7508C11.6274 30.0123 11.8532 30.2391 12.0579 30.4016C12.2717 30.5712 12.5072 30.7082 12.8004 30.7468L12.9308 29.7553C12.8874 29.7496 12.8197 29.7295 12.6795 29.6182C12.5303 29.4998 12.3512 29.3219 12.0731 29.0437L11.366 29.7508ZM10.2492 28.634L11.366 29.7508L12.0731 29.0437L10.9563 27.9269L10.2492 28.634ZM9.2532 27.1996C9.29179 27.4928 9.42876 27.7283 9.5984 27.9421C9.76088 28.1468 9.98767 28.3725 10.2492 28.634L10.9563 27.9269C10.6781 27.6487 10.5001 27.4697 10.3817 27.3204C10.2704 27.1802 10.2504 27.1125 10.2447 27.0691L9.2532 27.1996ZM9.24111 26.9571C9.23858 27.0381 9.24262 27.1192 9.2532 27.1996L10.2447 27.0691C10.2411 27.0423 10.2398 27.0153 10.2406 26.9883L9.24111 26.9571ZM10.0894 25.4307C9.85523 25.717 9.65202 25.9641 9.51071 26.184C9.36319 26.4136 9.25033 26.6615 9.24111 26.9571L10.2406 26.9883C10.242 26.9446 10.2552 26.8752 10.352 26.7246C10.455 26.5643 10.6142 26.3685 10.8634 26.064L10.0894 25.4307ZM11.2342 23.695C11.2461 23.7374 11.2603 23.8464 11.0684 24.157C10.8777 24.4656 10.5589 24.8569 10.0894 25.4307L10.8634 26.064C11.3138 25.5134 11.685 25.0614 11.9191 24.6826C12.152 24.3057 12.3258 23.8831 12.1969 23.4245L11.2342 23.695ZM11.1889 23.5855C11.2083 23.6201 11.2235 23.6569 11.2342 23.695L12.1969 23.4246C12.1648 23.31 12.1191 23.1998 12.0609 23.096L11.1889 23.5855ZM9.15206 23.1677C9.88976 23.2415 10.3919 23.2928 10.745 23.3761C11.1003 23.46 11.1673 23.5471 11.1889 23.5855L12.0609 23.096C11.8277 22.6807 11.406 22.5047 10.9748 22.4029C10.5415 22.3006 9.95941 22.2434 9.25156 22.1727L9.15206 23.1677ZM9.20179 23.1702H9.20181V22.1702H9.20179V23.1702ZM7.47294 22.6882C7.68846 22.8907 7.94359 22.9862 8.21024 23.0443C8.46564 23.0998 8.78408 23.1309 9.15204 23.1677L9.25154 22.1727C8.86011 22.1335 8.60901 22.1076 8.42286 22.0671C8.24796 22.0291 8.18954 21.9894 8.15765 21.9594L7.47294 22.6882ZM7.31 22.5082C7.35936 22.5725 7.41385 22.6327 7.47294 22.6882L8.15765 21.9594C8.13795 21.9409 8.11979 21.9208 8.10333 21.8994L7.31 22.5082ZM7 20.7897C7 21.1595 6.99923 21.4795 7.02911 21.7391C7.06031 22.0102 7.12998 22.2736 7.31 22.5082L8.10333 21.8994C8.07669 21.8647 8.04302 21.8026 8.02255 21.6248C8.00077 21.4355 8 21.1831 8 20.7897L7 20.7897ZM7 19.2104L7 20.7897L8 20.7897L8 19.2104L7 19.2104ZM7.31011 17.4917C7.13003 17.7263 7.06034 17.9897 7.02912 18.2608C6.99923 18.5206 7 18.8406 7 19.2104L8 19.2104C8 18.817 8.00077 18.5645 8.02256 18.3752C8.04304 18.1974 8.07672 18.1353 8.10337 18.1005L7.31011 17.4917ZM7.47281 17.3119C7.41381 17.3673 7.3594 17.4274 7.31011 17.4917L8.10337 18.1005C8.1198 18.0791 8.13794 18.0591 8.1576 18.0406L7.47281 17.3119ZM9.15219 16.8323C8.78417 16.8691 8.46566 16.9002 8.21021 16.9558C7.94352 17.0138 7.68834 17.1093 7.47281 17.3119L8.1576 18.0406C8.1895 18.0106 8.24793 17.971 8.42286 17.9329C8.60904 17.8924 8.86018 17.8665 9.25169 17.8273L9.15219 16.8323ZM11.1894 16.4143C11.1678 16.4527 11.1008 16.5399 10.7454 16.6238C10.3923 16.7072 9.89005 16.7585 9.15219 16.8323L9.25169 17.8273C9.9597 17.7565 10.5419 17.6994 10.9753 17.597C11.4065 17.4952 11.8283 17.3192 12.0615 16.9037L11.1894 16.4143ZM11.2347 16.305C11.2239 16.3431 11.2087 16.3798 11.1894 16.4143L12.0615 16.9037C12.1196 16.8001 12.1652 16.69 12.1973 16.5757L11.2347 16.305ZM10.0896 14.5689C10.5592 15.1428 10.8781 15.5343 11.0688 15.843C11.2608 16.1536 11.2466 16.2626 11.2347 16.305L12.1973 16.5757C12.3263 16.117 12.1525 15.6943 11.9195 15.3173C11.6854 14.9385 11.3142 14.4864 10.8636 13.9357L10.0896 14.5689ZM9.24115 13.0421C9.25033 13.3377 9.36321 13.5858 9.51077 13.8154C9.6521 14.0354 9.85537 14.2826 10.0896 14.5689L10.8636 13.9357C10.6144 13.6311 10.4551 13.4352 10.3521 13.2748C10.2553 13.1242 10.242 13.0548 10.2407 13.0111L9.24115 13.0421ZM9.25322 12.8001C9.24268 12.8803 9.23865 12.9612 9.24115 13.0421L10.2407 13.0111C10.2398 12.9841 10.2412 12.9571 10.2447 12.9304L9.25322 12.8001ZM10.2494 11.3653C9.98781 11.6269 9.76095 11.8526 9.59844 12.0574C9.42876 12.2713 9.29177 12.5068 9.25322 12.8001L10.2447 12.9304C10.2504 12.887 10.2705 12.8193 10.3818 12.679C10.5002 12.5298 10.6782 12.3507 10.9565 12.0724L10.2494 11.3653ZM11.366 10.2487L10.2494 11.3653L10.9565 12.0724L12.0731 10.9558L11.366 10.2487ZM12.8004 9.25269C12.5072 9.29127 12.2717 9.42825 12.058 9.59789C11.8532 9.76037 11.6275 9.98717 11.366 10.2487L12.0731 10.9558C12.3513 10.6776 12.5303 10.4996 12.6796 10.3812C12.8198 10.2699 12.8875 10.2499 12.9309 10.2441L12.8004 9.25269ZM13.0429 9.2406C12.9619 9.23807 12.8808 9.24211 12.8004 9.25269L12.9309 10.2441C12.9577 10.2406 12.9847 10.2393 13.0117 10.2401L13.0429 9.2406ZM14.5694 10.089C14.2831 9.85477 14.0359 9.65154 13.816 9.51023C13.5864 9.36269 13.3385 9.24981 13.0429 9.2406L13.0117 10.2401C13.0554 10.2415 13.1248 10.2547 13.2754 10.3515C13.4357 10.4545 13.6316 10.6138 13.9361 10.8629L14.5694 10.089ZM16.3049 11.2338C16.2626 11.2456 16.1536 11.2598 15.843 11.0679C15.5344 10.8772 15.1431 10.5584 14.5694 10.089L13.9361 10.8629C14.4867 11.3134 14.9386 11.6845 15.3173 11.9186C15.6942 12.1514 16.1167 12.3253 16.5752 12.1965L16.3049 11.2338ZM16.4146 11.1883C16.38 11.2078 16.3432 11.223 16.3049 11.2338L16.5752 12.1965C16.6899 12.1643 16.8004 12.1186 16.9043 12.0602L16.4146 11.1883ZM16.8323 9.15188C16.7586 9.88944 16.7073 10.3915 16.6239 10.7445C16.54 11.0997 16.453 11.1668 16.4146 11.1883L16.9043 12.0602C17.3195 11.827 17.4954 11.4054 17.5972 10.9743C17.6995 10.541 17.7566 9.9591 17.8274 9.25138L16.8323 9.15188ZM17.3116 7.47308C17.1092 7.68858 17.0137 7.94367 16.9557 8.21027C16.9002 8.46562 16.8691 8.784 16.8323 9.15188L17.8274 9.25138C17.8665 8.86003 17.8924 8.60898 17.9329 8.42287C17.9709 8.248 18.0106 8.18959 18.0405 8.15769L17.3116 7.47308ZM17.492 7.30988C17.4275 7.35931 17.3672 7.41389 17.3116 7.47309L18.0405 8.15769C18.0591 8.13796 18.0792 8.11977 18.1006 8.10329L17.492 7.30988ZM19.2101 7C18.8404 7 18.5205 6.99923 18.2609 7.0291C17.9899 7.06029 17.7265 7.12993 17.492 7.30988L18.1006 8.10329C18.1354 8.07666 18.1974 8.043 18.3752 8.02255C18.5644 8.00077 18.8168 8 19.2101 8V7ZM20.7897 7H19.2101V8H20.7897V7ZM22.5082 7.31C22.2736 7.12998 22.0102 7.06031 21.7391 7.02911C21.4795 6.99923 21.1595 7 20.7897 7V8C21.1831 8 21.4355 8.00077 21.6248 8.02255C21.8026 8.04302 21.8647 8.07669 21.8994 8.10333L22.5082 7.31ZM22.6882 7.47294C22.6327 7.41385 22.5725 7.35936 22.5082 7.31L21.8994 8.10333C21.9208 8.11979 21.9409 8.13795 21.9594 8.15765L22.6882 7.47294ZM24.5 20C24.5 22.4853 22.4853 24.5 20 24.5V25.5C23.0376 25.5 25.5 23.0376 25.5 20H24.5ZM20 15.5C22.4853 15.5 24.5 17.5147 24.5 20H25.5C25.5 16.9624 23.0376 14.5 20 14.5V15.5ZM15.5 20C15.5 17.5147 17.5147 15.5 20 15.5V14.5C16.9624 14.5 14.5 16.9624 14.5 20H15.5ZM20 24.5C17.5147 24.5 15.5 22.4853 15.5 20H14.5C14.5 23.0376 16.9624 25.5 20 25.5V24.5Z" fill="#F2F2F2"/>
<rect x="0.5" y="0.5" width="39" height="39" rx="11.5" stroke="#A2A2A2"/>
</svg>
