<svg width="30" height="30" viewBox="0 0 30 30" fill="none" xmlns="http://www.w3.org/2000/svg">
<path d="M16.7801 7.80119L16.2826 7.85094V7.85094L16.7801 7.80119ZM16.7197 7.3799L17.1987 7.23653V7.23653L16.7197 7.3799ZM16.8947 8.55462L16.4303 8.74005V8.74005L16.8947 8.55462ZM18.2178 9.10268L18.415 9.56214V9.56214L18.2178 9.10268ZM18.8316 8.65093L19.1482 9.03791L19.1591 9.02901L19.1694 9.01951L18.8316 8.65093ZM18.8316 8.65092L18.5149 8.26394L18.5041 8.27285L18.4937 8.28235L18.8316 8.65092ZM19.1722 8.39578L18.9348 7.95569L18.9348 7.9557L19.1722 8.39578ZM20.2067 8.44738L20.4866 8.03309L20.4866 8.03309L20.2067 8.44738ZM20.5202 8.73516L20.1667 9.08871L20.1667 9.08871L20.5202 8.73516ZM21.2648 9.47971L21.6183 9.12616L21.6183 9.12616L21.2648 9.47971ZM21.5526 9.79326L21.1383 10.0732L21.1383 10.0732L21.5526 9.79326ZM21.6042 10.8278L21.1641 10.5905V10.5905L21.6042 10.8278ZM21.349 11.1684L20.962 10.8518L21.349 11.1684ZM20.8973 11.7822L21.3567 11.9794L20.8973 11.7822ZM21.4453 13.1053L21.6307 12.641L21.6307 12.641L21.4453 13.1053ZM22.1988 13.2199L22.149 13.7174L22.1988 13.2199ZM22.6201 13.2803L22.7635 12.8013L22.6201 13.2803ZM23.3151 14.0483L23.806 13.9533V13.9533L23.3151 14.0483ZM23.3151 15.9516L22.8242 15.8566V15.8566L23.3151 15.9516ZM22.62 16.7197L22.7634 17.1987L22.7634 17.1987L22.62 16.7197ZM22.1989 16.7801L22.1491 16.2826H22.1491L22.1989 16.7801ZM21.4458 16.8946L21.2604 16.4302H21.2604L21.4458 16.8946ZM20.8976 18.2179L21.3571 18.0206L21.3571 18.0206L20.8976 18.2179ZM21.3491 18.8313L21.7491 18.5313L21.7428 18.5229L21.7361 18.5147L21.3491 18.8313ZM21.3492 18.8313L20.9492 19.1313L20.9555 19.1398L20.9622 19.1479L21.3492 18.8313ZM21.6042 19.1717L21.1641 19.4091L21.1641 19.4091L21.6042 19.1717ZM21.5526 20.2064L21.1383 19.9265L21.1383 19.9265L21.5526 20.2064ZM21.2649 20.5198L21.6185 20.8734H21.6185L21.2649 20.5198ZM20.5203 21.2645L20.1667 20.9109H20.1667L20.5203 21.2645ZM20.2067 21.5522L20.4867 21.9665L20.4867 21.9665L20.2067 21.5522ZM19.1722 21.6038L18.9349 22.0439L19.1722 21.6038ZM18.8316 21.3487L19.1482 20.9617L19.1293 20.9462L19.109 20.9327L18.8316 21.3487ZM18.8316 21.3487L18.5115 21.7328L18.532 21.7499L18.5542 21.7647L18.8316 21.3487ZM18.8316 21.3487L19.1517 20.9645L19.1482 20.9617L18.8316 21.3487ZM18.2178 20.8969L18.0206 21.3564H18.0206L18.2178 20.8969ZM16.8947 21.445L16.4304 21.2596L16.4304 21.2596L16.8947 21.445ZM16.7801 22.1986L17.2777 22.2483V22.2483L16.7801 22.1986ZM16.7197 22.6202L17.1986 22.7636L17.1986 22.7636L16.7197 22.6202ZM15.9518 23.3151L15.8567 22.8242L15.8567 22.8242L15.9518 23.3151ZM14.0483 23.3151L13.9533 23.806H13.9533L14.0483 23.3151ZM13.2803 22.6201L12.8013 22.7635V22.7635L13.2803 22.6201ZM13.2199 22.1988L13.7174 22.149L13.7158 22.1327L13.7131 22.1166L13.2199 22.1988ZM13.2199 22.1988L12.7224 22.2485L12.724 22.2648L12.7267 22.281L13.2199 22.1988ZM13.1053 21.4453L12.641 21.6307L13.1053 21.4453ZM11.7822 20.8972L11.9794 21.3567L11.9794 21.3567L11.7822 20.8972ZM11.1684 21.349L10.8518 20.962L10.8325 20.9778L10.8148 20.9955L11.1684 21.349ZM11.1684 21.349L11.485 21.736L11.5043 21.7202L11.5219 21.7026L11.1684 21.349ZM10.8277 21.6042L10.5904 21.1641L10.5904 21.1641L10.8277 21.6042ZM9.79324 21.5526L10.0732 21.1383L10.0732 21.1383L9.79324 21.5526ZM9.47968 21.2648L9.83323 20.9113L9.82284 20.9009L9.81186 20.8911L9.47968 21.2648ZM9.47967 21.2648L9.12612 21.6184L9.13651 21.6288L9.14749 21.6385L9.47967 21.2648ZM8.73514 20.5203L8.38158 20.8738L8.38158 20.8738L8.73514 20.5203ZM8.44734 20.2067L8.03305 20.4867L8.03305 20.4867L8.44734 20.2067ZM8.39574 19.1722L8.83583 19.4095L8.83583 19.4095L8.39574 19.1722ZM8.65092 18.8316L9.03789 19.1482H9.03789L8.65092 18.8316ZM9.10268 18.2178L8.64322 18.0206L8.64322 18.0206L9.10268 18.2178ZM8.55463 16.8947L8.36919 17.359H8.36919L8.55463 16.8947ZM7.80119 16.7801L7.71729 17.273L7.73429 17.2759L7.75144 17.2776L7.80119 16.7801ZM7.80117 16.7801L7.88507 16.2872L7.86808 16.2843L7.85092 16.2826L7.80117 16.7801ZM7.37991 16.7197L7.52329 16.2407L7.52329 16.2407L7.37991 16.7197ZM6.68488 15.9517L6.19399 16.0467H6.19399L6.68488 15.9517ZM6.6849 14.0482L6.19401 13.9532L6.19401 13.9532L6.6849 14.0482ZM7.37983 13.2803L7.23642 12.8013H7.23642L7.37983 13.2803ZM7.80129 13.2199L7.75154 12.7223H7.75154L7.80129 13.2199ZM8.55505 13.1052L8.74054 13.5696H8.74054L8.55505 13.1052ZM9.10304 11.7823L8.64356 11.9794L8.64356 11.9794L9.10304 11.7823ZM8.65107 11.1682L9.03805 10.8516L9.02737 10.8385L9.01583 10.8262L8.65107 11.1682ZM8.65106 11.1682L8.26408 11.4848L8.27476 11.4978L8.28629 11.5101L8.65106 11.1682ZM8.39573 10.8273L7.95561 11.0646L7.95561 11.0646L8.39573 10.8273ZM8.44731 9.79299L8.03299 9.5131L8.03299 9.5131L8.44731 9.79299ZM8.73527 9.47923L8.38172 9.12568H8.38172L8.73527 9.47923ZM9.79328 8.44699L9.51335 8.0327L9.51335 8.0327L9.79328 8.44699ZM10.8278 8.39539L11.0651 7.9553L11.0651 7.9553L10.8278 8.39539ZM11.1685 8.65062L10.8519 9.0376L10.8708 9.05309L10.8911 9.06665L11.1685 8.65062ZM11.1685 8.65063L11.4851 8.26365L11.4662 8.24817L11.4458 8.2346L11.1685 8.65063ZM11.7821 9.1023L11.5848 9.56174L11.7821 9.1023ZM13.1054 8.55418L12.641 8.36881V8.36881L13.1054 8.55418ZM13.2199 7.80108L12.7224 7.75133V7.75133L13.2199 7.80108ZM13.2803 7.37999L13.7593 7.52332L13.2803 7.37999ZM14.0484 6.68486L14.1434 7.17576V7.17576L14.0484 6.68486ZM15.9517 6.68487L15.8567 7.17576L15.8567 7.17576L15.9517 6.68487ZM17.2776 7.75144C17.2579 7.55427 17.2433 7.38572 17.1987 7.23653L16.2407 7.52328C16.251 7.55778 16.2584 7.60886 16.2826 7.85094L17.2776 7.75144ZM17.359 8.36919C17.3559 8.36138 17.3441 8.32545 17.3285 8.21467C17.3133 8.10689 17.2988 7.96313 17.2776 7.75144L16.2826 7.85094C16.3029 8.0542 16.3196 8.22166 16.3382 8.3541C16.3564 8.48355 16.3811 8.61686 16.4303 8.74005L17.359 8.36919ZM18.0206 8.64322C17.7622 8.75411 17.4633 8.63028 17.359 8.36919L16.4303 8.74005C16.7431 9.52332 17.64 9.89482 18.415 9.56214L18.0206 8.64322ZM18.5149 8.26395C18.3503 8.39867 18.2384 8.49009 18.1515 8.55557C18.0621 8.62287 18.0283 8.6399 18.0206 8.64322L18.415 9.56214C18.5369 9.50982 18.6486 9.43301 18.7531 9.35436C18.8599 9.2739 18.9901 9.16726 19.1482 9.03791L18.5149 8.26395ZM18.4937 8.28235L18.4937 8.28235L19.1694 9.01951L19.1694 9.0195L18.4937 8.28235ZM18.9348 7.9557C18.7978 8.02961 18.6683 8.13848 18.5149 8.26394L19.1482 9.0379C19.3365 8.88385 19.3778 8.85296 19.4095 8.83587L18.9348 7.9557ZM20.4866 8.03309C20.0241 7.72054 19.4262 7.69072 18.9348 7.95569L19.4095 8.83587C19.5733 8.74754 19.7726 8.75748 19.9268 8.86167L20.4866 8.03309ZM20.8738 8.3816C20.7337 8.2415 20.6157 8.12028 20.4866 8.03309L19.9268 8.86167C19.9566 8.88183 19.9947 8.91668 20.1667 9.08871L20.8738 8.3816ZM21.6183 9.12616L20.8738 8.3816L20.1667 9.08871L20.9112 9.83327L21.6183 9.12616ZM21.9669 9.51333C21.8797 9.38429 21.7585 9.26627 21.6183 9.12616L20.9112 9.83327C21.0833 10.0053 21.1181 10.0434 21.1383 10.0732L21.9669 9.51333ZM22.0443 11.0651C22.3092 10.5737 22.2794 9.97588 21.9669 9.51333L21.1383 10.0732C21.2425 10.2274 21.2524 10.4267 21.1641 10.5905L22.0443 11.0651ZM21.736 11.485C21.8615 11.3317 21.9703 11.2022 22.0443 11.0651L21.1641 10.5905C21.147 10.6222 21.1161 10.6635 20.962 10.8518L21.736 11.485ZM21.3567 11.9794C21.36 11.9717 21.3771 11.9379 21.4444 11.8485C21.5099 11.7616 21.6013 11.6497 21.736 11.485L20.962 10.8518C20.8327 11.0099 20.726 11.1401 20.6456 11.2469C20.5669 11.3513 20.4901 11.4631 20.4378 11.585L21.3567 11.9794ZM21.6307 12.641C21.3697 12.5367 21.2458 12.2377 21.3567 11.9794L20.4378 11.585C20.1051 12.36 20.4766 13.2569 21.2599 13.5696L21.6307 12.641ZM22.2485 12.7223C22.0368 12.7012 21.8931 12.6867 21.7853 12.6715C21.6745 12.6559 21.6386 12.6441 21.6307 12.641L21.2599 13.5696C21.3831 13.6188 21.5164 13.6435 21.6458 13.6618C21.7783 13.6804 21.9458 13.6971 22.149 13.7174L22.2485 12.7223ZM22.7635 12.8013C22.6143 12.7566 22.4457 12.7421 22.2485 12.7223L22.149 13.7174C22.3911 13.7416 22.4422 13.749 22.4767 13.7593L22.7635 12.8013ZM23.806 13.9533C23.6999 13.4052 23.2983 12.9614 22.7635 12.8013L22.4767 13.7593C22.655 13.8127 22.7889 13.9606 22.8242 14.1433L23.806 13.9533ZM23.8333 14.4735C23.8333 14.2754 23.8356 14.1062 23.806 13.9533L22.8242 14.1433C22.8311 14.1787 22.8333 14.2302 22.8333 14.4735H23.8333ZM23.8333 15.5266V14.4735H22.8333V15.5266H23.8333ZM23.806 16.0466C23.8356 15.8937 23.8333 15.7246 23.8333 15.5266H22.8333C22.8333 15.7698 22.8311 15.8213 22.8242 15.8566L23.806 16.0466ZM22.7634 17.1987C23.2983 17.0386 23.7 16.5947 23.806 16.0466L22.8242 15.8566C22.7889 16.0394 22.655 16.1873 22.4767 16.2407L22.7634 17.1987ZM22.2486 17.2776C22.4457 17.2579 22.6142 17.2433 22.7634 17.1987L22.4767 16.2407C22.4422 16.251 22.3911 16.2584 22.1491 16.2826L22.2486 17.2776ZM21.6311 17.359C21.6389 17.3558 21.6748 17.344 21.7856 17.3284C21.8933 17.3132 22.037 17.2988 22.2486 17.2776L22.1491 16.2826C21.9459 16.3029 21.7786 16.3195 21.6462 16.3382C21.5168 16.3564 21.3835 16.3811 21.2604 16.4302L21.6311 17.359ZM21.3571 18.0206C21.2461 17.7622 21.37 17.4632 21.6311 17.359L21.2604 16.4302C20.4769 16.7429 20.1053 17.6401 20.4382 18.4152L21.3571 18.0206ZM21.7361 18.5147C21.6015 18.3501 21.5101 18.2383 21.4447 18.1514C21.3774 18.0621 21.3604 18.0283 21.3571 18.0206L20.4382 18.4152C20.4905 18.537 20.5673 18.6487 20.6459 18.753C20.7263 18.8598 20.8329 18.9899 20.9622 19.1479L21.7361 18.5147ZM21.7492 18.5313L21.7491 18.5313L20.9491 19.1313L20.9492 19.1313L21.7492 18.5313ZM22.0442 18.9344C21.9703 18.7974 21.8615 18.668 21.7361 18.5147L20.9622 19.1479C21.1161 19.3361 21.147 19.3774 21.1641 19.4091L22.0442 18.9344ZM21.9668 20.4864C22.2795 20.0238 22.3093 19.4258 22.0442 18.9344L21.1641 19.4091C21.2525 19.5729 21.2425 19.7723 21.1383 19.9265L21.9668 20.4864ZM21.6185 20.8734C21.7585 20.7333 21.8797 20.6154 21.9668 20.4864L21.1383 19.9265C21.1181 19.9563 21.0833 19.9943 20.9114 20.1662L21.6185 20.8734ZM20.8738 21.618L21.6185 20.8734L20.9114 20.1662L20.1667 20.9109L20.8738 21.618ZM20.4867 21.9665C20.6157 21.8793 20.7337 21.7581 20.8738 21.618L20.1667 20.9109C19.9947 21.0829 19.9566 21.1178 19.9268 21.1379L20.4867 21.9665ZM18.9349 22.0439C19.4263 22.3089 20.0241 22.2791 20.4867 21.9665L19.9268 21.1379C19.7726 21.2421 19.5733 21.2521 19.4095 21.1637L18.9349 22.0439ZM18.515 21.7357C18.6683 21.8611 18.7978 21.97 18.9349 22.0439L19.4095 21.1637C19.3778 21.1466 19.3365 21.1158 19.1482 20.9617L18.515 21.7357ZM18.5542 21.7647L18.5543 21.7647L19.109 20.9327L19.1089 20.9327L18.5542 21.7647ZM18.5115 21.7328L18.5115 21.7328L19.1517 20.9646L19.1517 20.9646L18.5115 21.7328ZM18.0206 21.3564C18.0284 21.3597 18.0621 21.3767 18.1515 21.444C18.2384 21.5095 18.3503 21.6009 18.515 21.7356L19.1482 20.9617C18.9901 20.8323 18.8599 20.7257 18.7531 20.6452C18.6487 20.5666 18.537 20.4898 18.4151 20.4375L18.0206 21.3564ZM17.3591 21.6304C17.4633 21.3693 17.7623 21.2455 18.0206 21.3564L18.4151 20.4375C17.64 20.1048 16.7432 20.4763 16.4304 21.2596L17.3591 21.6304ZM17.2777 22.2483C17.2988 22.0366 17.3133 21.8928 17.3285 21.785C17.3441 21.6742 17.3559 21.6382 17.3591 21.6304L16.4304 21.2596C16.3812 21.3828 16.3565 21.5161 16.3383 21.6456C16.3196 21.778 16.3029 21.9455 16.2826 22.1488L17.2777 22.2483ZM17.1986 22.7636C17.2433 22.6143 17.2579 22.4457 17.2777 22.2483L16.2826 22.1488C16.2584 22.3911 16.251 22.4422 16.2407 22.4768L17.1986 22.7636ZM16.0468 23.806C16.5948 23.6999 17.0385 23.2983 17.1986 22.7636L16.2407 22.4767C16.1873 22.655 16.0394 22.7888 15.8567 22.8242L16.0468 23.806ZM15.5264 23.8333C15.7246 23.8333 15.8939 23.8356 16.0468 23.806L15.8567 22.8242C15.8213 22.8311 15.7698 22.8333 15.5264 22.8333V23.8333ZM14.4735 23.8333H15.5264V22.8333H14.4735V23.8333ZM13.9533 23.806C14.1062 23.8356 14.2754 23.8333 14.4735 23.8333V22.8333C14.2302 22.8333 14.1787 22.8311 14.1433 22.8242L13.9533 23.806ZM12.8013 22.7635C12.9614 23.2983 13.4052 23.6999 13.9533 23.806L14.1433 22.8242C13.9606 22.7889 13.8127 22.655 13.7593 22.4767L12.8013 22.7635ZM12.7224 22.2485C12.7421 22.4457 12.7567 22.6143 12.8013 22.7635L13.7593 22.4767C13.749 22.4422 13.7416 22.3911 13.7174 22.149L12.7224 22.2485ZM12.7267 22.281L12.7267 22.281L13.7131 22.1166L13.7131 22.1166L12.7267 22.281ZM12.7267 22.281L12.7267 22.281L13.7131 22.1166L13.7131 22.1166L12.7267 22.281ZM12.641 21.6307C12.6441 21.6385 12.6559 21.6745 12.6715 21.7853C12.6867 21.893 12.7012 22.0368 12.7224 22.2485L13.7174 22.149C13.6971 21.9458 13.6804 21.7783 13.6618 21.6458C13.6435 21.5164 13.6188 21.383 13.5696 21.2599L12.641 21.6307ZM11.9794 21.3567C12.2378 21.2458 12.5367 21.3697 12.641 21.6307L13.5696 21.2599C13.2568 20.4766 12.36 20.1051 11.585 20.4378L11.9794 21.3567ZM11.485 21.736C11.6497 21.6013 11.7616 21.5099 11.8485 21.4444C11.9379 21.3771 11.9717 21.36 11.9794 21.3567L11.585 20.4378C11.4631 20.4901 11.3514 20.5669 11.2469 20.6456C11.1401 20.726 11.0099 20.8327 10.8518 20.962L11.485 21.736ZM11.5219 21.7026L11.522 21.7026L10.8148 20.9955L10.8148 20.9955L11.5219 21.7026ZM11.065 22.0443C11.2021 21.9704 11.3316 21.8615 11.485 21.736L10.8518 20.9621C10.6635 21.1161 10.6221 21.147 10.5904 21.1641L11.065 22.0443ZM9.51331 21.9669C9.97586 22.2794 10.5737 22.3093 11.0651 22.0443L10.5904 21.1641C10.4266 21.2524 10.2274 21.2425 10.0732 21.1383L9.51331 21.9669ZM9.12612 21.6184C9.26624 21.7585 9.38426 21.8797 9.51332 21.9669L10.0732 21.1383C10.0433 21.1182 10.0053 21.0833 9.83323 20.9113L9.12612 21.6184ZM9.14749 21.6385L9.14749 21.6385L9.81186 20.8911L9.81185 20.8911L9.14749 21.6385ZM8.38158 20.8738L9.12612 21.6184L9.83322 20.9113L9.08869 20.1667L8.38158 20.8738ZM8.03305 20.4867C8.12024 20.6157 8.24147 20.7337 8.38158 20.8738L9.08869 20.1667C8.91665 19.9947 8.8818 19.9566 8.86163 19.9268L8.03305 20.4867ZM7.95565 18.9349C7.69069 19.4263 7.72051 20.0241 8.03305 20.4867L8.86163 19.9268C8.75745 19.7726 8.74751 19.5733 8.83583 19.4095L7.95565 18.9349ZM8.26394 18.5149C8.13846 18.6683 8.02958 18.7978 7.95565 18.9349L8.83583 19.4095C8.85293 19.3778 8.88382 19.3365 9.03789 19.1482L8.26394 18.5149ZM8.64322 18.0206C8.6399 18.0283 8.62288 18.0621 8.55557 18.1514C8.49008 18.2384 8.39867 18.3503 8.26394 18.5149L9.03789 19.1482C9.16725 18.9901 9.27389 18.8599 9.35436 18.7531C9.43301 18.6486 9.50982 18.5369 9.56214 18.415L8.64322 18.0206ZM8.36919 17.359C8.63028 17.4633 8.75411 17.7622 8.64322 18.0206L9.56214 18.415C9.89482 17.64 9.52333 16.7431 8.74006 16.4303L8.36919 17.359ZM7.75144 17.2776C7.96314 17.2988 8.10689 17.3133 8.21467 17.3284C8.32546 17.344 8.36138 17.3559 8.36919 17.359L8.74006 16.4303C8.61687 16.3811 8.48355 16.3564 8.35411 16.3382C8.22166 16.3196 8.0542 16.3029 7.85094 16.2826L7.75144 17.2776ZM7.71727 17.273L7.71729 17.273L7.88509 16.2872L7.88507 16.2872L7.71727 17.273ZM7.23654 17.1987C7.38573 17.2433 7.55427 17.2579 7.75142 17.2776L7.85092 16.2826C7.60886 16.2584 7.55779 16.251 7.52329 16.2407L7.23654 17.1987ZM6.19399 16.0467C6.30006 16.5948 6.70173 17.0386 7.23654 17.1987L7.52329 16.2407C7.34502 16.1873 7.21113 16.0394 7.17577 15.8567L6.19399 16.0467ZM6.16666 15.5265C6.16666 15.7246 6.1644 15.8938 6.19399 16.0467L7.17577 15.8567C7.16893 15.8213 7.16666 15.7698 7.16666 15.5265H6.16666ZM6.16666 14.4736V15.5265H7.16666V14.4736H6.16666ZM6.19401 13.9532C6.1644 14.1061 6.16666 14.2754 6.16666 14.4736H7.16666C7.16666 14.2302 7.16893 14.1786 7.17578 14.1433L6.19401 13.9532ZM7.23642 12.8013C6.70171 12.9614 6.30011 13.4052 6.19401 13.9532L7.17578 14.1433C7.21115 13.9606 7.34501 13.8127 7.52325 13.7593L7.23642 12.8013ZM7.75154 12.7223C7.5543 12.7421 7.38567 12.7566 7.23642 12.8013L7.52325 13.7593C7.55776 13.749 7.60886 13.7416 7.85104 13.7174L7.75154 12.7223ZM8.36956 12.6409C8.36175 12.644 8.32581 12.6559 8.21498 12.6715C8.10715 12.6867 7.96333 12.7012 7.75154 12.7223L7.85104 13.7174C8.05439 13.697 8.22193 13.6804 8.35443 13.6617C8.48393 13.6435 8.61731 13.6188 8.74054 13.5696L8.36956 12.6409ZM8.64356 11.9794C8.7544 12.2377 8.63059 12.5366 8.36956 12.6409L8.74054 13.5696C9.52364 13.2567 9.89505 12.36 9.56253 11.5851L8.64356 11.9794ZM8.26409 11.4848C8.39888 11.6495 8.49035 11.7615 8.55587 11.8485C8.62321 11.9379 8.64024 11.9717 8.64356 11.9794L9.56253 11.5851C9.5102 11.4632 9.43335 11.3514 9.35467 11.2469C9.27417 11.14 9.16747 11.0097 9.03805 10.8516L8.26409 11.4848ZM8.28629 11.5101L8.2863 11.5101L9.01583 10.8262L9.01583 10.8262L8.28629 11.5101ZM7.95561 11.0646C8.02956 11.2017 8.13852 11.3313 8.26408 11.4848L9.03804 10.8516C8.88386 10.6631 8.85295 10.6217 8.83584 10.59L7.95561 11.0646ZM8.03299 9.5131C7.72057 9.97559 7.69076 10.5733 7.95561 11.0646L8.83585 10.59C8.74756 10.4263 8.7575 10.227 8.86164 10.0729L8.03299 9.5131ZM8.38172 9.12568C8.24152 9.26588 8.12022 9.38397 8.03299 9.5131L8.86164 10.0729C8.88181 10.043 8.91668 10.0049 9.08883 9.83278L8.38172 9.12568ZM8.38172 9.12568L8.38172 9.12568L9.08883 9.83278L9.08883 9.83278L8.38172 9.12568ZM9.12616 8.38124L8.38172 9.12568L9.08883 9.83278L9.83326 9.08835L9.12616 8.38124ZM9.51335 8.0327C9.3843 8.11989 9.26628 8.24112 9.12616 8.38124L9.83326 9.08835C10.0053 8.9163 10.0434 8.88145 10.0732 8.86128L9.51335 8.0327ZM11.0651 7.9553C10.5737 7.69035 9.9759 7.72016 9.51335 8.0327L10.0732 8.86128C10.2274 8.75711 10.4267 8.74717 10.5905 8.83549L11.0651 7.9553ZM11.4851 8.26365C11.3317 8.13813 11.2022 8.02923 11.0651 7.9553L10.5905 8.83549C10.6222 8.85258 10.6635 8.88349 10.8519 9.0376L11.4851 8.26365ZM11.4458 8.2346L11.4458 8.2346L10.8911 9.06665L10.8911 9.06665L11.4458 8.2346ZM11.9794 8.64287C11.9717 8.63955 11.9379 8.62253 11.8485 8.55523C11.7616 8.48975 11.6497 8.39835 11.4851 8.26365L10.8519 9.03761C11.0099 9.16694 11.1401 9.27356 11.2469 9.354C11.3513 9.43263 11.463 9.50942 11.5848 9.56174L11.9794 8.64287ZM12.641 8.36881C12.5368 8.62995 12.2378 8.75381 11.9794 8.64287L11.5848 9.56174C12.36 9.89457 13.257 9.523 13.5698 8.73956L12.641 8.36881ZM12.7224 7.75133C12.7012 7.96293 12.6867 8.10662 12.6716 8.21435C12.656 8.32509 12.6441 8.361 12.641 8.36881L13.5698 8.73956C13.6189 8.61642 13.6436 8.48316 13.6618 8.35377C13.6804 8.22138 13.6971 8.054 13.7174 7.85083L12.7224 7.75133ZM12.8013 7.23665C12.7566 7.38578 12.7421 7.55425 12.7224 7.75133L13.7174 7.85083C13.7416 7.60886 13.749 7.55781 13.7593 7.52332L12.8013 7.23665ZM13.9534 6.19396C13.4053 6.3 12.9613 6.70174 12.8013 7.23665L13.7593 7.52332C13.8127 7.34502 13.9606 7.2111 14.1434 7.17576L13.9534 6.19396ZM14.4734 6.16666C14.2754 6.16666 14.1063 6.16439 13.9534 6.19396L14.1434 7.17576C14.1787 7.16892 14.2302 7.16666 14.4734 7.16666V6.16666ZM15.5265 6.16666H14.4734V7.16666H15.5265V6.16666ZM16.0467 6.19398C15.8938 6.16439 15.7246 6.16666 15.5265 6.16666V7.16666C15.7698 7.16666 15.8213 7.16892 15.8567 7.17576L16.0467 6.19398ZM17.1987 7.23653C17.0386 6.70172 16.5948 6.30005 16.0467 6.19398L15.8567 7.17576C16.0394 7.21112 16.1873 7.34501 16.2407 7.52328L17.1987 7.23653ZM17.8333 15C17.8333 16.5648 16.5648 17.8333 15 17.8333V18.8333C17.1171 18.8333 18.8333 17.1171 18.8333 15H17.8333ZM15 12.1667C16.5648 12.1667 17.8333 13.4352 17.8333 15H18.8333C18.8333 12.8829 17.1171 11.1667 15 11.1667V12.1667ZM12.1667 15C12.1667 13.4352 13.4352 12.1667 15 12.1667V11.1667C12.8829 11.1667 11.1667 12.8829 11.1667 15H12.1667ZM15 17.8333C13.4352 17.8333 12.1667 16.5648 12.1667 15H11.1667C11.1667 17.1171 12.8829 18.8333 15 18.8333V17.8333Z" fill="#F2F2F2"/>
<rect x="0.5" y="0.5" width="29" height="29" rx="9.5" stroke="#A2A2A2"/>
</svg>
