<svg width="50" height="50" viewBox="0 0 50 50" fill="none" xmlns="http://www.w3.org/2000/svg">
<rect width="50" height="50" rx="15" fill="#FF4A4A"/>
<path d="M25 17.125L24.6464 16.7714L25 16.4179L25.3536 16.7714L25 17.125ZM25.5 27.25C25.5 27.5261 25.2761 27.75 25 27.75C24.7239 27.75 24.5 27.5261 24.5 27.25L25.5 27.25ZM19.0214 22.3964L24.6464 16.7714L25.3536 17.4786L19.7286 23.1036L19.0214 22.3964ZM25.3536 16.7714L30.9786 22.3964L30.2714 23.1036L24.6464 17.4786L25.3536 16.7714ZM25.5 17.125L25.5 27.25L24.5 27.25L24.5 17.125L25.5 17.125Z" fill="#222222"/>
<path d="M17.125 29.5L17.125 30.625C17.125 31.8676 18.1324 32.875 19.375 32.875L30.625 32.875C31.8676 32.875 32.875 31.8676 32.875 30.625V29.5" stroke="#222222"/>
</svg>
