<svg width="50" height="50" viewBox="0 0 50 50" fill="none" xmlns="http://www.w3.org/2000/svg">
<rect width="50" height="50" rx="15" fill="#4AFF72"/>
<path d="M25 27.25L24.6464 27.6036L25 27.9571L25.3536 27.6036L25 27.25ZM25.5 17.125C25.5 16.8489 25.2761 16.625 25 16.625C24.7239 16.625 24.5 16.8489 24.5 17.125L25.5 17.125ZM19.0214 21.9786L24.6464 27.6036L25.3536 26.8964L19.7286 21.2714L19.0214 21.9786ZM25.3536 27.6036L30.9786 21.9786L30.2714 21.2714L24.6464 26.8964L25.3536 27.6036ZM25.5 27.25L25.5 17.125L24.5 17.125L24.5 27.25L25.5 27.25Z" fill="#222222"/>
<path d="M17.125 29.5L17.125 30.625C17.125 31.8676 18.1324 32.875 19.375 32.875L30.625 32.875C31.8676 32.875 32.875 31.8676 32.875 30.625V29.5" stroke="#222222"/>
</svg>
