<svg width="20" height="20" viewBox="0 0 20 20" fill="none" xmlns="http://www.w3.org/2000/svg">
<circle cx="9" cy="5" r="4" stroke="#222222" stroke-linecap="round"/>
<path fill-rule="evenodd" clip-rule="evenodd" d="M12.2759 13C10.8972 12.5613 9.3896 12.4073 7.90666 12.5538C6.26616 12.7157 4.71472 13.2397 3.45048 14.0712C2.18613 14.9028 1.25374 16.0137 0.801744 17.2789C0.70884 17.5389 0.844333 17.825 1.10438 17.9179C1.36442 18.0108 1.65054 17.8754 1.74345 17.6153C2.11048 16.588 2.88515 15.64 4 14.9067C5.11495 14.1734 6.508 13.6967 8.00492 13.5489C8.55477 13.4946 9.10756 13.4858 9.65362 13.521C10.009 13.1974 10.4814 13 11 13L12.2759 13Z" fill="#222222"/>
<path d="M15 11L15 19" stroke="#222222" stroke-linecap="round"/>
<path d="M19 15L11 15" stroke="#222222" stroke-linecap="round"/>
</svg>
