<svg width="20" height="19" viewBox="0 0 20 19" fill="none" xmlns="http://www.w3.org/2000/svg">
<path d="M3.88889 7.22223L1.83802 8.58948C1.36914 8.90206 1.1347 9.05836 0.964975 9.26486C0.814723 9.44767 0.701991 9.65831 0.633229 9.88473C0.555557 10.1405 0.555557 10.4223 0.555557 10.9858V15.4533C0.555557 16.4614 0.555557 16.9655 0.751746 17.3505C0.924318 17.6892 1.19968 17.9646 1.53837 18.1372C1.92342 18.3333 2.42746 18.3333 3.43555 18.3333H16.5644C17.5725 18.3333 18.0766 18.3333 18.4616 18.1372C18.8003 17.9646 19.0757 17.6892 19.2483 17.3505C19.4444 16.9655 19.4444 16.4614 19.4444 15.4533V10.9858C19.4444 10.4223 19.4444 10.1405 19.3668 9.88473C19.298 9.65831 19.1853 9.44767 19.035 9.26486C18.8653 9.05836 18.6309 8.90206 18.162 8.58947L16.1111 7.22223" stroke="#F2F2F2" stroke-linecap="round"/>
<path d="M19.4444 11.6667H16.4415C15.7458 11.6667 15.3979 11.6667 15.1361 11.8554C14.8742 12.0442 14.7642 12.3742 14.5442 13.0342L14.3447 13.6325C14.1247 14.2925 14.0147 14.6225 13.7528 14.8113C13.491 15 13.1431 15 12.4474 15H7.55263C6.85691 15 6.50905 15 6.24716 14.8113C5.98527 14.6225 5.87527 14.2925 5.65526 13.6325L5.45585 13.0342C5.23584 12.3742 5.12584 12.0442 4.86395 11.8554C4.60207 11.6667 4.2542 11.6667 3.55848 11.6667H0.555557" stroke="#F2F2F2"/>
<path d="M7.22222 3.88892L10 1.11114M10 1.11114L12.7778 3.88892M10 1.11114L10 8.88892" stroke="#F2F2F2"/>
</svg>
