<svg width="34" height="34" viewBox="0 0 34 34" fill="none" xmlns="http://www.w3.org/2000/svg">
<path d="M1.375 5.54167V5.54167C1.375 4.45606 1.375 3.91326 1.51385 3.47288C1.80818 2.53939 2.53939 1.80818 3.47288 1.51385C3.91326 1.375 4.45606 1.375 5.54167 1.375L29.5417 1.375C30.0131 1.375 30.2488 1.375 30.3952 1.52145C30.5417 1.66789 30.5417 1.9036 30.5417 2.375V3.70833C30.5417 6.53676 30.5417 7.95097 29.663 8.82965C28.7843 9.70833 27.3701 9.70833 24.5417 9.70833H23.25M1.375 5.54167V5.54167C1.375 6.62727 1.375 7.17008 1.51385 7.61045C1.80818 8.54394 2.53939 9.27516 3.47288 9.56949C3.91326 9.70833 4.45606 9.70833 5.54167 9.70833L30.625 9.70833C31.5678 9.70833 32.0392 9.70833 32.3321 10.0012C32.625 10.2941 32.625 10.7655 32.625 11.7083V18.0417M1.375 5.54167L1.375 28.625C1.375 30.5106 1.375 31.4534 1.96079 32.0392C2.54657 32.625 3.48938 32.625 5.375 32.625L30.625 32.625C31.5678 32.625 32.0392 32.625 32.3321 32.3321C32.625 32.0392 32.625 31.5678 32.625 30.625V26.375M32.625 26.375H26.2917C25.3489 26.375 24.8775 26.375 24.5846 26.0821C24.2917 25.7892 24.2917 25.3178 24.2917 24.375V20.0417C24.2917 19.0989 24.2917 18.6275 24.5846 18.3346C24.8775 18.0417 25.3489 18.0417 26.2917 18.0417H32.625M32.625 26.375V18.0417" stroke="#222222"/>
</svg>
