<svg width="24" height="24" viewBox="0 0 24 24" fill="none" xmlns="http://www.w3.org/2000/svg">
<path d="M0.970588 3.91177V3.91177C0.970588 2.28741 2.2874 0.970596 3.91177 0.970596L20.7185 0.970596C21.0367 0.970596 21.1957 0.970596 21.3136 1.04036C21.3859 1.08318 21.4462 1.14353 21.4891 1.21585C21.5588 1.33367 21.5588 1.49276 21.5588 1.81093V1.81093C21.5588 3.71998 21.5588 4.67451 21.1402 5.38144C20.8833 5.81533 20.5212 6.17746 20.0873 6.43437C19.3804 6.85295 18.4259 6.85295 16.5168 6.85295H16.4118M0.970588 3.91177V3.91177C0.970588 5.53614 2.2874 6.85295 3.91176 6.85295L21.0294 6.85295C21.9722 6.85295 22.4436 6.85295 22.7365 7.14584C23.0294 7.43874 23.0294 7.91014 23.0294 8.85295L23.0294 12.7353M0.970588 3.91177L0.970588 19.0294C0.970588 20.915 0.970588 21.8578 1.55637 22.4436C2.14216 23.0294 3.08497 23.0294 4.97059 23.0294L21.0294 23.0294C21.9722 23.0294 22.4436 23.0294 22.7365 22.7365C23.0294 22.4436 23.0294 21.9722 23.0294 21.0294V18.6177M23.0294 18.6177H19.1471C18.2042 18.6177 17.7328 18.6177 17.44 18.3248C17.1471 18.0319 17.1471 17.5605 17.1471 16.6177V14.7353C17.1471 13.7925 17.1471 13.3211 17.44 13.0282C17.7328 12.7353 18.2042 12.7353 19.1471 12.7353H23.0294M23.0294 18.6177V12.7353" stroke="#222222"/>
</svg>
