<svg width="100" height="100" viewBox="0 0 100 100" fill="none" xmlns="http://www.w3.org/2000/svg">
<g opacity="0.4">
<path d="M66.6667 14.3222L66.6667 33.3333L66.6667 99.0657C66.6667 99.477 66.6667 99.6826 66.5346 99.7533C66.4026 99.8239 66.2315 99.7099 65.8893 99.4818L50.2773 89.0738C50.1429 88.9842 50.0757 88.9393 50 88.9393C49.9243 88.9393 49.8571 88.9842 49.7226 89.0738L33.6107 99.8151C33.4762 99.9047 33.409 99.9495 33.3333 99.9495C33.2576 99.9495 33.1904 99.9047 33.056 99.8151L16.944 89.0738C16.8096 88.9842 16.7424 88.9393 16.6667 88.9393C16.591 88.9393 16.5238 88.9842 16.3893 89.0738L0.77735 99.4818C0.435164 99.7099 0.264071 99.8239 0.132035 99.7533C-1.3873e-08 99.6826 -2.28612e-08 99.477 -4.08377e-08 99.0657L-4.19629e-06 4.00005C-4.27871e-06 2.11443 -4.31993e-06 1.17162 0.585783 0.585831C1.17157 4.57252e-05 2.11438 4.56839e-05 4 4.56015e-05L83.3333 4.97631e-05L69.3385 9.32991C68.0306 10.2018 67.3766 10.6378 67.0216 11.3011C66.6667 11.9644 66.6667 12.7503 66.6667 14.3222Z" fill="#2A4157" fill-opacity="0.24"/>
<path d="M66.6667 3C66.6667 1.34314 68.0099 0 69.6667 0H97.0001C98.6569 0 100 1.34315 100 3V32.3333C100 32.8856 99.5524 33.3333 99.0001 33.3333H67.1667C66.8906 33.3333 66.6667 33.1095 66.6667 32.8333V3Z" fill="#222222"/>
<path d="M13.8889 36.1111L52.7778 36.1111" stroke="#222222" stroke-linecap="round"/>
<path d="M13.8889 52.7778L36.1111 52.7778" stroke="#222222" stroke-linecap="round"/>
<path d="M13.8889 69.4444L47.2222 69.4444" stroke="#222222" stroke-linecap="round"/>
</g>
</svg>
