<svg width="24" height="24" viewBox="0 0 24 24" fill="none" xmlns="http://www.w3.org/2000/svg">
<path d="M19.2 1.20006V1.20006C19.7574 1.20006 20.0361 1.20006 20.2693 1.23699C21.553 1.44031 22.5598 2.44708 22.7631 3.73076C22.8 3.96395 22.8 4.24265 22.8 4.80006L22.8 7.40005C22.8 7.87145 22.8 8.10716 22.6536 8.2536C22.5071 8.40005 22.2714 8.40005 21.8 8.40005L15.6 8.40005M19.2 1.20006V1.20006C18.6426 1.20006 18.3639 1.20006 18.1307 1.23699C16.847 1.44031 15.8403 2.44708 15.6369 3.73076C15.6 3.96395 15.6 4.24265 15.6 4.80005L15.6 8.40005M19.2 1.20006L5.20001 1.20006C3.31439 1.20006 2.37158 1.20006 1.7858 1.78584C1.20001 2.37163 1.20001 3.31444 1.20001 5.20006L1.20001 22.8L4.80001 21.6L8.40001 22.8L12 21.6L15.6 22.8L15.6 8.40005" stroke="#222222"/>
<path d="M6 6L10.8 6" stroke="#222222" stroke-linecap="round"/>
<path d="M7.20001 10.8H6.00001" stroke="#222222" stroke-linecap="round"/>
<path d="M6 15.6L9.6 15.6" stroke="#222222" stroke-linecap="round"/>
</svg>
